<svg width="597" height="311" viewBox="0 0 597 311" fill="none" xmlns="http://www.w3.org/2000/svg">
<path fill-rule="evenodd" clip-rule="evenodd" d="M0 173L3.22396 161C6.44792 150 13.4332 127 19.8811 104C26.8663 81 33.3142 58 39.7622 87C46.7474 115 53.1953 196 59.6432 213C66.6285 231 73.0764 185 80.0616 173C86.5095 161 92.9575 185 99.9427 202C106.391 219 113.376 231 119.824 236C126.272 242 133.257 242 139.705 248C146.69 254 153.138 265 159.586 271C166.571 277 173.019 277 179.467 254C186.452 231 192.9 185 199.885 161C206.333 138 212.781 138 219.766 156C226.214 173 233.2 208 239.648 225C246.095 242 253.081 242 259.529 254C265.977 265 272.962 288 279.41 271C286.395 254 292.843 196 299.291 161C306.276 127 312.724 115 319.709 110C326.157 104 332.605 104 339.59 110C346.038 115 353.023 127 359.471 144C365.919 161 372.905 185 379.352 167C385.8 150 392.786 92 399.234 110C406.219 127 412.667 219 419.115 260C426.1 300 432.548 288 439.533 248C445.981 208 452.429 138 459.414 110C465.862 81 472.31 92 479.295 110C485.743 127 492.728 150 499.176 161C505.624 173 512.609 173 519.057 167C526.043 161 532.49 150 538.938 161C545.924 173 552.372 208 559.357 242C565.805 277 572.253 311 579.238 311C585.686 311 592.134 277 599.119 260C605.567 242 612.552 242 615.776 242H619V0H615.776C612.552 0 605.567 0 599.119 0C592.134 0 585.686 0 579.238 0C572.253 0 565.805 0 559.357 0C552.372 0 545.924 0 538.938 0C532.49 0 526.043 0 519.057 0C512.609 0 505.624 0 499.176 0C492.728 0 485.743 0 479.295 0C472.31 0 465.862 0 459.414 0C452.429 0 445.981 0 439.533 0C432.548 0 426.1 0 419.115 0C412.667 0 406.219 0 399.234 0C392.786 0 385.8 0 379.352 0C372.905 0 365.919 0 359.471 0C353.023 0 346.038 0 339.59 0C332.605 0 326.157 0 319.709 0C312.724 0 306.276 0 299.291 0C292.843 0 286.395 0 279.41 0C272.962 0 265.977 0 259.529 0C253.081 0 246.095 0 239.648 0C233.2 0 226.214 0 219.766 0C212.781 0 206.333 0 199.885 0C192.9 0 186.452 0 179.467 0C173.019 0 166.571 0 159.586 0C153.138 0 146.69 0 139.705 0C133.257 0 126.272 0 119.824 0C113.376 0 106.391 0 99.9427 0C92.9575 0 86.5095 0 80.0616 0C73.0764 0 66.6285 0 59.6432 0C53.1953 0 46.7474 0 39.7622 0C33.3142 0 26.8663 0 19.8811 0C13.4332 0 6.44792 0 3.22396 0H0V173Z" fill="#09126D"/>
</svg>

