<svg width="576" height="311" viewBox="0 0 576 311" fill="none" xmlns="http://www.w3.org/2000/svg">
<path fill-rule="evenodd" clip-rule="evenodd" d="M0 34L3.5 69C7 103 13.5 173 20.5 196C27.5 219 34.5 196 41 155C48 115 55 57 61.5 28C68.5 0 75.5 0 82.5 11C89 23 96 46 103 52C109.5 57 116.5 46 123.5 52C130.5 57 137 80 144 92C151 103 157.5 103 164.5 92C171.5 80 178.5 57 185 40C192 23 199 11 205.5 34C212.5 57 219.5 115 226.5 121C233 126 240 80 247 86C253.5 92 260.5 150 267.5 155C274.5 161 281 115 288 80C295 46 301.5 23 308.5 23C315.5 23 322.5 46 329 46C336 46 343 23 349.5 46C356.5 69 363.5 138 370.5 167C377 196 384 184 391 155C397.5 126 404.5 80 411.5 63C418.5 46 425 57 432 69C439 80 445.5 92 452.5 121C459.5 150 466.5 196 473 184C480 173 487 103 493.5 103C500.5 103 507.5 173 514.5 219C521 265 528 288 535 276C541.5 265 548.5 219 555.5 167C562.5 115 569 57 572.5 28L576 0V311H572.5C569 311 562.5 311 555.5 311C548.5 311 541.5 311 535 311C528 311 521 311 514.5 311C507.5 311 500.5 311 493.5 311C487 311 480 311 473 311C466.5 311 459.5 311 452.5 311C445.5 311 439 311 432 311C425 311 418.5 311 411.5 311C404.5 311 397.5 311 391 311C384 311 377 311 370.5 311C363.5 311 356.5 311 349.5 311C343 311 336 311 329 311C322.5 311 315.5 311 308.5 311C301.5 311 295 311 288 311C281 311 274.5 311 267.5 311C260.5 311 253.5 311 247 311C240 311 233 311 226.5 311C219.5 311 212.5 311 205.5 311C199 311 192 311 185 311C178.5 311 171.5 311 164.5 311C157.5 311 151 311 144 311C137 311 130.5 311 123.5 311C116.5 311 109.5 311 103 311C96 311 89 311 82.5 311C75.5 311 68.5 311 61.5 311C55 311 48 311 41 311C34.5 311 27.5 311 20.5 311C13.5 311 7 311 3.5 311H0V34Z" fill="#09126D"/>
</svg>

